<svg width="100" height="100" fill="none" xmlns="http://www.w3.org/2000/svg"><circle cx="28" cy="31" r="15" fill="#00C26D"/><path d="M70 71.12A8.12 8.12 0 0 0 61.88 63H43.12A8.12 8.12 0 0 0 35 71.12v13.447a1.433 1.433 0 0 0 2.866 0V71.12a5.254 5.254 0 0 1 5.253-5.253h18.762a5.254 5.254 0 0 1 5.253 5.253v13.448a1.433 1.433 0 0 0 2.866 0V71.12z" fill="#293349"/><path d="M67.381 37.84h11.613v-6.813H67.843M36.772 31.027H27.82l-10.775 3.347a.063.063 0 0 0 0 .12l10.774 3.346h8.456M27.818 31.027v6.813M78.994 31.027h4.541a2.27 2.27 0 0 1 2.271 2.271v2.27a2.27 2.27 0 0 1-2.27 2.272h-4.542v-6.831.018z" stroke="#293349" stroke-width="2.25" stroke-miterlimit="10"/><path fill-rule="evenodd" clip-rule="evenodd" d="M44.298 17.8a5.365 5.365 0 0 1 3.791-1.527h.026a5.393 5.393 0 0 1 5.296 5.469l-.056 6.787a3 3 0 0 1-2.975-3.024l.031-3.808a2.393 2.393 0 0 0-2.335-2.424 2.365 2.365 0 0 0-1.69.68l-.007.008-.007.006a2.322 2.322 0 0 0-.715 1.647l-.045 8.613a1.5 1.5 0 0 1-3-.02l.045-8.632v-.008a5.323 5.323 0 0 1 1.64-3.767zM59.787 18.87a5.365 5.365 0 0 1 3.791-1.527h.026a5.393 5.393 0 0 1 5.296 5.464l-.034 17.699a1.5 1.5 0 0 1-3-.006l.034-17.72v-.012a2.393 2.393 0 0 0-2.335-2.425 2.365 2.365 0 0 0-1.69.681l-.007.007-.007.006a2.322 2.322 0 0 0-.715 1.647l-.037 5.418-3-.02.037-5.436v-.009a5.323 5.323 0 0 1 1.64-3.767z" fill="#293349"/><path fill-rule="evenodd" clip-rule="evenodd" d="M52.081 16.034c1.032-1.024 2.355-1.534 3.762-1.534h.026c2.932.051 5.36 2.486 5.314 5.469l-.065 10.497a1.5 1.5 0 0 1-3-.018l.065-10.516v-.007c.022-1.293-1.048-2.395-2.353-2.425-.65.003-1.2.227-1.64.668l-.014.014-.013.013a2.322 2.322 0 0 0-.716 1.647l-.064 10.495a1.5 1.5 0 1 1-3-.018l.064-10.517v-.008a5.323 5.323 0 0 1 1.634-3.76z" fill="#293349"/><path d="m74.878 38.412-.037 2.566a7.955 7.955 0 0 1-3.102 5.926s-4.689 4.08-6.997 9.545c-.646 1.55-1.034 4.93-1.237 8.935M67.585 30.179c1.012-1.762 2.583-3.262 4.505-4.047 1.551-.634 2.95.785 2.924 2.46l-.026 1.624M44.12 26.283a3.819 3.819 0 0 0-3.766-3.932c-1.034 0-1.994.369-2.751 1.107a3.822 3.822 0 0 0-1.182 2.714l-.074 3.323s-.24 6.222.019 11.465c.572 11.501 4.412 13.938 4.578 19.698.037 1.33.056 3.083.074 5.059" stroke="#293349" stroke-width="3" stroke-miterlimit="10"/></svg>